<?xml version="1.0" encoding="utf-8"?>
<!-- Generator: Adobe Illustrator 21.0.0, SVG Export Plug-In . SVG Version: 6.00 Build 0)  -->
<svg version="1.1" id="Layer_1" xmlns="http://www.w3.org/2000/svg" xmlns:xlink="http://www.w3.org/1999/xlink" x="0px" y="0px"
	 viewBox="0 0 1920 1080" style="enable-background:new 0 0 1920 1080;" xml:space="preserve">
<style type="text/css">
	.st0{clip-path:url(#SVGID_2_);fill:#161616;}
	.st1{clip-path:url(#SVGID_2_);}
	.st2{fill:#0A0A0A;}
	.st3{fill:#282828;}
</style>
<g>
	<defs>
		<rect id="SVGID_1_" width="1920" height="1080"/>
	</defs>
	<clipPath id="SVGID_2_">
		<use xlink:href="#SVGID_1_"  style="overflow:visible;"/>
	</clipPath>
	<rect class="st0" width="1920" height="1080"/>
	<g class="st1">
		<path class="st2" d="M400.9,682.9L-191.9,90.1c-49.3-49.3-49.3-129.3,0-178.7l262-262c49.3-49.3,129.3-49.3,178.7,0l592.8,592.8
			c49.3,49.3,49.3,129.3,0,178.7l-262,262C530.2,732.2,450.2,732.2,400.9,682.9z"/>
		<path class="st3" d="M398.2,658.5L-194.5,65.8c-49.3-49.3-49.3-129.3,0-178.7L46.1-353.5c49.3-49.3,129.3-49.3,178.7,0
			l592.8,592.8c49.3,49.3,49.3,129.3,0,178.7L576.9,658.5C527.6,707.9,447.6,707.9,398.2,658.5z"/>
	</g>
	<g class="st1">
		<path class="st2" d="M1088.9,444.9L496.1-147.9c-49.3-49.3-49.3-129.3,0-178.7l262-262c49.3-49.3,129.3-49.3,178.7,0L1529.5,4.2
			c49.3,49.3,49.3,129.3,0,178.7l-262,262C1218.2,494.2,1138.2,494.2,1088.9,444.9z"/>
		<path class="st3" d="M1086.2,420.5L493.5-172.2c-49.3-49.3-49.3-129.3,0-178.7l240.6-240.6c49.3-49.3,129.3-49.3,178.7,0
			L1505.5,1.2c49.3,49.3,49.3,129.3,0,178.7l-240.6,240.6C1215.6,469.9,1135.6,469.9,1086.2,420.5z"/>
	</g>
	<g class="st1">
		<path class="st2" d="M1009.1,484.5l592.8,592.8c49.3,49.3,49.3,129.3,0,178.7l-262,262c-49.3,49.3-129.3,49.3-178.7,0L568.5,925.1
			c-49.3-49.3-49.3-129.3,0-178.7l262-262C879.8,435.1,959.8,435.1,1009.1,484.5z"/>
		<path class="st3" d="M1011.8,508.8l592.8,592.8c49.3,49.3,49.3,129.3,0,178.7l-240.6,240.6c-49.3,49.3-129.3,49.3-178.7,0
			L592.5,928.1c-49.3-49.3-49.3-129.3,0-178.7l240.6-240.6C882.4,459.5,962.4,459.5,1011.8,508.8z"/>
	</g>
	<g class="st1">
		<path class="st2" d="M1700.1,243.5l592.8,592.8c49.3,49.3,49.3,129.3,0,178.7l-262,262c-49.3,49.3-129.3,49.3-178.7,0
			l-592.8-592.8c-49.3-49.3-49.3-129.3,0-178.7l262-262C1570.8,194.1,1650.8,194.1,1700.1,243.5z"/>
		<path class="st3" d="M1702.8,267.8l592.8,592.8c49.3,49.3,49.3,129.3,0,178.7l-240.6,240.6c-49.3,49.3-129.3,49.3-178.7,0
			l-592.8-592.8c-49.3-49.3-49.3-129.3,0-178.7l240.6-240.6C1573.4,218.5,1653.4,218.5,1702.8,267.8z"/>
	</g>
	<g class="st1">
		<path class="st2" d="M460.4,964.1l-592.8,592.8c-49.3,49.3-129.3,49.3-178.7,0l-262-262c-49.3-49.3-49.3-129.3,0-178.7L19.7,523.5
			c49.3-49.3,129.3-49.3,178.7,0l262,262C509.7,834.8,509.7,914.8,460.4,964.1z"/>
		<path class="st3" d="M436,966.8l-592.8,592.8c-49.3,49.3-129.3,49.3-178.7,0L-576,1318.9c-49.3-49.3-49.3-129.3,0-178.7
			L16.7,547.5c49.3-49.3,129.3-49.3,178.7,0L436,788.1C485.4,837.4,485.4,917.4,436,966.8z"/>
	</g>
	<g class="st1">
		<path class="st2" d="M1676.5-8.3L2269.2-601c49.3-49.3,129.3-49.3,178.7,0l262,262c49.3,49.3,49.3,129.3,0,178.7l-592.8,592.8
			c-49.3,49.3-129.3,49.3-178.7,0l-262-262C1627.1,121.1,1627.1,41.1,1676.5-8.3z"/>
		<path class="st3" d="M1700.8-10.9l592.8-592.8c49.3-49.3,129.3-49.3,178.7,0l240.6,240.6c49.3,49.3,49.3,129.3,0,178.7
			l-592.8,592.8c-49.3,49.3-129.3,49.3-178.7,0l-240.6-240.6C1651.5,118.4,1651.5,38.4,1700.8-10.9z"/>
	</g>
	<g class="st1">
		<path class="st2" d="M888.4,1472.1l-592.8,592.8c-49.3,49.3-129.3,49.3-178.7,0l-262-262c-49.3-49.3-49.3-129.3,0-178.7
			l592.8-592.8c49.3-49.3,129.3-49.3,178.7,0l262,262C937.7,1342.8,937.7,1422.8,888.4,1472.1z"/>
		<path class="st3" d="M864,1474.8l-592.8,592.8c-49.3,49.3-129.3,49.3-178.7,0L-148,1826.9c-49.3-49.3-49.3-129.3,0-178.7
			l592.8-592.8c49.3-49.3,129.3-49.3,178.7,0L864,1296.1C913.4,1345.4,913.4,1425.4,864,1474.8z"/>
	</g>
</g>
</svg>
