<svg xmlns="http://www.w3.org/2000/svg" viewBox="0 0 530.11 514.06"><defs><style>.cls-1{fill:#fff;stroke:#000;stroke-miterlimit:10;stroke-width:2px;}</style></defs><title>Asset 1</title><g id="Layer_2" data-name="Layer 2"><g id="Layer_1-2" data-name="Layer 1"><path class="cls-1" d="M358.11,151.34l143.7,21.2a32,32,0,0,1,17.8,54.4l-104.2,102.2L440,475.74a32,32,0,0,1-46.6,33.6L265,440.84l-128.3,68.5a32.22,32.22,0,0,1-33.8-2.3,31.84,31.84,0,0,1-12.8-31.3l24.6-146.6L10.49,226.94a32.15,32.15,0,0,1-7.89-32.8,31.81,31.81,0,0,1,25.73-21.6l143.58-21.2L236.31,19a32,32,0,0,1,57.5,0Z"/></g></g></svg>