<?xml version="1.0" encoding="utf-8"?>
<!-- Generator: Adobe Illustrator 21.0.0, SVG Export Plug-In . SVG Version: 6.00 Build 0)  -->
<svg version="1.1" id="Layer_1" xmlns="http://www.w3.org/2000/svg" xmlns:xlink="http://www.w3.org/1999/xlink" x="0px" y="0px"
	 viewBox="0 0 1920 1080" style="enable-background:new 0 0 1920 1080;" xml:space="preserve">
<style type="text/css">
	.st0{clip-path:url(#SVGID_2_);fill:url(#SVGID_3_);}
	.st1{clip-path:url(#SVGID_2_);}
	.st2{fill:url(#SVGID_4_);}
	.st3{fill:url(#SVGID_5_);}
	.st4{fill:url(#SVGID_6_);}
	.st5{fill:url(#SVGID_7_);}
	.st6{fill:url(#SVGID_8_);}
	.st7{clip-path:url(#SVGID_2_);fill:url(#SVGID_9_);}
	.st8{clip-path:url(#SVGID_2_);fill:url(#SVGID_10_);}
	.st9{fill:url(#SVGID_11_);}
	.st10{fill:url(#SVGID_12_);}
	.st11{fill:url(#SVGID_13_);}
	.st12{fill:url(#SVGID_14_);}
</style>
<g>
	<defs>
		<rect id="SVGID_1_" x="-0.5" y="0.5" width="1920" height="1082"/>
	</defs>
	<clipPath id="SVGID_2_">
		<use xlink:href="#SVGID_1_"  style="overflow:visible;"/>
	</clipPath>
	<radialGradient id="SVGID_3_" cx="-177.6741" cy="626.9792" r="1426.4476" gradientUnits="userSpaceOnUse">
		<stop  offset="4.867926e-02" style="stop-color:#FFFFFF"/>
		<stop  offset="0.1419" style="stop-color:#FF3FDA"/>
		<stop  offset="1" style="stop-color:#15DBFF"/>
	</radialGradient>
	<polygon class="st0" points="1920,1080 -1,1080 -1,277.8 -1,0 1920,0 	"/>
	<g class="st1">
		<radialGradient id="SVGID_4_" cx="767.7168" cy="244.6649" r="548.6595" gradientUnits="userSpaceOnUse">
			<stop  offset="0" style="stop-color:#0F0094"/>
			<stop  offset="1" style="stop-color:#AE00BF"/>
		</radialGradient>
		<path class="st2" d="M850,207c-14,30-62,168,166,121s225-158,354-23c49.6,51.9,56.7,66.1,86,80c38,18,59.6,7.7,107-28
			c77-58-139-246-139-246S1311,7,1118,48S864,177,850,207z"/>
		<radialGradient id="SVGID_5_" cx="768.6237" cy="255.6649" r="546.7592" gradientUnits="userSpaceOnUse">
			<stop  offset="0" style="stop-color:#300094"/>
			<stop  offset="1" style="stop-color:#BF0080"/>
		</radialGradient>
		<path class="st3" d="M848,218c-8,23-62,168,166,121s225-158,354-23c49.6,51.9,56.7,66.1,86,80c38,18,59.6,7.7,107-28
			c77-58-139-246-139-246s-113-104-306-63S856,195,848,218z"/>
	</g>
	<g class="st1">
		
			<radialGradient id="SVGID_6_" cx="995.8925" cy="765.7675" r="548.6595" gradientTransform="matrix(-1 0 0 -1 1940.863 1612.2114)" gradientUnits="userSpaceOnUse">
			<stop  offset="0" style="stop-color:#0F0094"/>
			<stop  offset="1" style="stop-color:#AE00BF"/>
		</radialGradient>
		<path class="st4" d="M862.7,884.1c14-30,62-168-166-121s-225,158-354,23c-49.6-51.9-56.7-66.1-86-80c-38-18-59.6-7.7-107,28
			c-77,58,139,246,139,246s113,104,306,63S848.7,914.1,862.7,884.1z"/>
		
			<radialGradient id="SVGID_7_" cx="996.7994" cy="776.7675" r="546.7592" gradientTransform="matrix(-1 0 0 -1 1940.863 1612.2114)" gradientUnits="userSpaceOnUse">
			<stop  offset="0" style="stop-color:#E97B00"/>
			<stop  offset="1" style="stop-color:#BF0080"/>
		</radialGradient>
		<path class="st5" d="M864.7,873.1c8-23,62-168-166-121s-225,158-354,23c-49.6-51.9-56.7-66.1-86-80c-38-18-59.6-7.7-107,28
			c-77,58,139,246,139,246s113,104,306,63S856.7,896.1,864.7,873.1z"/>
	</g>
	<g class="st1">
		<g>
			<radialGradient id="SVGID_8_" cx="1848.1472" cy="165.9196" r="244.4166" gradientUnits="userSpaceOnUse">
				<stop  offset="0" style="stop-color:#0F0094"/>
				<stop  offset="1" style="stop-color:#AE00BF"/>
			</radialGradient>
			<path class="st6" d="M1582.6-49.5c-8.4,23.5-8.2,49.8,1,73.1c8.8,22.3,25.4,40.3,43.9,55.1c38.1,30.5,84.2,48,129.7,63.9
				c23.8,8.3,47.8,16.2,71.2,25.7c23.8,9.7,47,21.8,64.8,40.7c16.5,17.5,28,38.7,40.4,59.1c12,19.8,25.2,38.6,42.9,53.8
				c39.6,34,91.7,48.8,141.5,60.6c1.9,0.4,2.7-2.4,0.8-2.9c-44.6-10.5-90.5-23.3-128.3-50.5c-19.2-13.8-34.4-31.2-47.1-51
				c-12.5-19.4-23.1-39.9-37.2-58.3c-14.3-18.7-32.3-32.9-53.2-43.6c-21.2-10.8-44-18.7-66.4-26.5c-45.6-15.9-92.4-30.6-133.6-56.5
				c-23.3-14.6-45.9-32.9-59.9-57c-14.9-25.6-17.5-56.9-7.5-84.8C1586.1-50.5,1583.2-51.3,1582.6-49.5L1582.6-49.5z"/>
		</g>
	</g>
	<linearGradient id="SVGID_9_" gradientUnits="userSpaceOnUse" x1="1500.5914" y1="118.1446" x2="1922.0681" y2="118.1446">
		<stop  offset="0" style="stop-color:#FDC094"/>
		<stop  offset="1" style="stop-color:#FFFFFF"/>
	</linearGradient>
	<path class="st7" d="M1500.6-32.7c0,0,20.6,138.7,250.1,186.4c0,0,136.7,34.3,171.3,115.3V-31.4L1500.6-32.7z"/>
	<linearGradient id="SVGID_10_" gradientUnits="userSpaceOnUse" x1="1579.5914" y1="120.7514" x2="1920" y2="120.7514">
		<stop  offset="0" style="stop-color:#FF8E92"/>
		<stop  offset="1" style="stop-color:#FF3FDA"/>
	</linearGradient>
	<path class="st8" d="M1579.6-1.1c0,0,16.7,112,202,150.5c0,0,110.4,27.7,138.4,93.1V0L1579.6-1.1z"/>
	<g class="st1">
		
			<radialGradient id="SVGID_11_" cx="370.582" cy="609.1005" r="736.0057" gradientTransform="matrix(-1 0 0 -1 2382 1386.1044)" gradientUnits="userSpaceOnUse">
			<stop  offset="0.1518" style="stop-color:#FF009A"/>
			<stop  offset="1" style="stop-color:#3F46FF"/>
		</radialGradient>
		<path class="st9" d="M1919.5,768.2c0,0-58.2-315.8-367.3-173.2s-81.7,292.4-343.7,344.7c-262,52.4-282.5,140.4-282.5,140.4h994
			L1919.5,768.2z"/>
		
			<radialGradient id="SVGID_12_" cx="375.2579" cy="595.7551" r="702.3855" gradientTransform="matrix(-1 0 0 -1 2382 1386.1044)" gradientUnits="userSpaceOnUse">
			<stop  offset="4.867926e-02" style="stop-color:#FFFFFF"/>
			<stop  offset="0.1419" style="stop-color:#FF3FDA"/>
			<stop  offset="1" style="stop-color:#15DBFF"/>
		</radialGradient>
		<path class="st10" d="M1919,781.9c0,0-55.5-301.3-350.5-165.3s-78,279-328,329s-269.6,134-269.6,134h948.6L1919,781.9z"/>
	</g>
	<g class="st1">
		<radialGradient id="SVGID_13_" cx="-92.418" cy="303.1005" r="736.0057" gradientUnits="userSpaceOnUse">
			<stop  offset="0.1518" style="stop-color:#FF009A"/>
			<stop  offset="1" style="stop-color:#3F46FF"/>
		</radialGradient>
		<path class="st11" d="M-0.5,311.9c0,0,58.2,315.8,367.3,173.2s81.7-292.4,343.7-344.7S993,0,993,0H-1L-0.5,311.9z"/>
		<radialGradient id="SVGID_14_" cx="-87.7421" cy="289.7551" r="702.3855" gradientUnits="userSpaceOnUse">
			<stop  offset="4.867926e-02" style="stop-color:#FFFFFF"/>
			<stop  offset="0.1419" style="stop-color:#FF3FDA"/>
			<stop  offset="1" style="stop-color:#15DBFF"/>
		</radialGradient>
		<path class="st12" d="M0,298.2c0,0,55.5,301.3,350.5,165.3s78-279,328-329s269.6-134,269.6-134H-0.5L0,298.2z"/>
	</g>
</g>
</svg>
